<?xml version="1.0" encoding="utf-8"?>
<!-- Generator: Adobe Illustrator 25.4.1, SVG Export Plug-In . SVG Version: 6.00 Build 0)  -->
<svg version="1.1" id="Layer_1" xmlns="http://www.w3.org/2000/svg" xmlns:xlink="http://www.w3.org/1999/xlink" x="0px" y="0px"
	 viewBox="0 0 1500 750" style="enable-background:new 0 0 1500 750;" xml:space="preserve">
<style type="text/css">
	.st0{fill:#3769FF;}
</style>
<g>
	<path class="st0" d="M687.5,267.5v-60c0-2.8-2.2-5-5-5h-210c-2.8,0-5,2.2-5,5v60c0,2.8,2.2,5,5,5h210
		C685.3,272.5,687.5,270.3,687.5,267.5"/>
	<path d="M447.5,547.5h-45c-17.7,0-34.7-6.7-47.7-18.8c-12.9-12-20.8-28.3-22.1-45.8c-0.1-1.4,0.4-2.8,1.3-3.8s2.3-1.6,3.7-1.6
		h109.8c2.8,0,5,2.2,5,5v60C452.5,545.3,450.3,547.5,447.5,547.5 M452.5,362.5c0-60.8-49.2-110-110-110h-105c-2.8,0-5,2.2-5,5v285
		c0,2.8,2.2,5,5,5h60c2.8,0,5-2.2,5-5v-220h40c22.1,0,40,17.9,40,40s-17.9,40-40,40h-5c-2.8,0-5,2.2-5,5v60c0,2.8,2.2,5,5,5h5
		C403.3,472.5,452.5,423.2,452.5,362.5 M537.5,437.5c0-22.1,17.9-40,40-40s40,17.9,40,40s-17.9,40-40,40S537.5,459.6,537.5,437.5
		 M577.5,547.5c60.8,0,110-49.2,110-110s-49.2-110-110-110s-110,49.2-110,110S516.7,547.5,577.5,547.5 M927.5,437.5
		c0-60.8-49.2-110-110-110s-110,49.2-110,110v105c0,2.8,2.2,5,5,5h60c2.8,0,5-2.2,5-5v-105c0-22.1,17.9-40,40-40s40,17.9,40,40v105
		c0,2.8,2.2,5,5,5h60c2.8,0,5-2.2,5-5V437.5z M1022.5,542.5v-210c0-2.8-2.2-5-5-5h-60c-2.8,0-5,2.2-5,5v210c0,2.8,2.2,5,5,5h60
		C1020.3,547.5,1022.5,545.3,1022.5,542.5 M1267.5,437.5c0-60.8-49.2-110-110-110s-110,49.2-110,110v105c0,2.8,2.2,5,5,5h60
		c2.8,0,5-2.2,5-5v-105c0-22.1,17.9-40,40-40s40,17.9,40,40v105c0,2.8,2.2,5,5,5h60c2.8,0,5-2.2,5-5V437.5z"/>
</g>
</svg>
